<svg xmlns="http://www.w3.org/2000/svg" xmlns:xlink="http://www.w3.org/1999/xlink" version="1.1" width="1080" height="1080" viewBox="0 0 1080 1080" xml:space="preserve">
<desc fill="#ffffff">Created with Fabric.js 5.2.4</desc>
<defs fill="#ffffff">
</defs>
<g transform="matrix(1 0 0 1 540 540)" id="78afc70e-7f9f-434e-811c-011561611788">
<rect style="stroke: none; stroke-width: 1; stroke-dasharray: none; stroke-linecap: butt; stroke-dashoffset: 0; stroke-linejoin: miter; stroke-miterlimit: 4; fill:#ffffff; fill-rule: nonzero; opacity: 1; visibility: hidden;" vector-effect="non-scaling-stroke" x="-540" y="-540" rx="0" ry="0" width="1080" height="1080"/>
</g>
<g transform="matrix(1 0 0 1 540 540)" id="b87e97c2-301d-4406-b28f-91dc5ef76f15">
</g>
<g transform="matrix(10.19 0 0 10.19 497.8 699.68)">
<g style="" vector-effect="non-scaling-stroke">
		<g transform="matrix(1 0 0 1 -3.83 -15.44)">
<path style="stroke: none; stroke-width: 1; stroke-dasharray: none; stroke-linecap: butt; stroke-dashoffset: 0; stroke-linejoin: miter; stroke-miterlimit: 4; fill:#ffffff; fill-rule: nonzero; opacity: 1;" vector-effect="non-scaling-stroke" transform=" translate(-41.67, -49.63)" d="M 37.63865 52.52778 C 34.418579821565025 50.85093101634035 31.34944510504883 48.898942399517935 28.465500000000002 46.693599999999996 C 24.917076409778318 44.08334379445981 21.910909430821402 40.80707332416148 19.61484 37.04771000000001 C 19.15433137822109 36.23849238327588 18.74348887518862 35.4020033551346 18.384589999999996 34.54288000000001 C 18.321519959728708 34.449094388002806 18.304723933425514 34.331643727420904 18.33898 34.223940000000006 C 18.515766484859878 34.26447358774859 18.6772171557706 34.35486444595731 18.80418 34.484390000000005 C 20.472746620876265 35.66850470603719 22.24554835022944 36.69841331006244 24.100679999999983 37.56139 C 26.625409999999995 38.84198 29.214679999999998 39.9855 31.805369999999996 41.12227 C 34.036579999999994 42.10132 36.29976 43.00778 38.55226999999999 43.93793 C 40.90113999999999 44.90793 43.248929999999994 45.88084 45.60809999999999 46.825230000000005 C 46.46059143327504 47.198268572875335 47.33204261344716 47.52638499450924 48.21886999999999 47.808229999999995 C 48.47093301010036 47.88359639437341 48.74167176255722 47.86601434301792 48.981869999999994 47.75868 C 50.88386467835949 46.94241930489538 52.97579802791211 46.672715060402126 55.022629999999985 46.97987 C 56.501220911121614 47.14033088935311 57.91319651294869 47.68040168760149 59.12144999999999 48.547639999999994 C 60.071138798905984 49.20445937526014 60.71595239470384 50.21638548944875 60.910109999999996 51.35464 C 60.96930999999999 51.75195 61.13511 51.85014 61.467839999999995 51.87758 C 62.4949787134176 51.973122683075026 63.45606742473472 52.42591263406898 64.18374 53.1571 C 64.50944356296365 53.44666087045475 64.72677042253365 53.83855181944694 64.7999 54.26818 C 64.86389999999999 54.66328 64.93961999999999 55.05646 65.02338999999999 55.52429 C 64.73076999999999 55.40843 64.50828999999999 55.31956 64.28523999999999 55.23216 C 62.93310534343806 54.630022086206864 61.413248829765884 54.518531094673335 59.98771999999999 54.91691 C 59.88691146464927 54.94099461874437 59.79389587270699 54.99035193780742 59.71743999999999 55.06033 C 58.62686797121537 56.14389653361058 57.31632396898972 56.98063608088639 55.87443999999999 57.51396 C 55.7648744718461 57.55534420943171 55.66986220579821 57.62797160506986 55.60117999999999 57.72284 C 53.20083169154517 60.689094528779115 49.954246078692606 62.854217415899235 46.29328999999999 63.9302 C 43.31120448907002 64.82437895172399 40.19315222927551 65.17761470087197 37.08660999999999 64.9732 C 34.473999495676786 64.92345256553173 31.890644987042265 64.4132352092403 29.455289999999998 63.466 C 26.527070186540207 62.29253979904421 24.010634387716713 60.280403502220494 22.221740000000004 57.68207000000001 C 22.177608466400894 57.617014748547014 22.137258390286213 57.54947302825542 22.10089 57.479780000000005 C 22.092045652440458 57.43675954817606 22.089018600406384 57.392746211600645 22.09189 57.34892000000001 C 22.484039031786487 57.288846208989625 22.88279215984484 57.28551540794528 23.275890000000004 57.33903000000001 C 24.020843693589665 57.397034674189655 24.76832253676287 57.416013961678026 25.515259999999994 57.39589000000001 C 26.813750000000002 57.405350000000006 28.11308 57.42147000000001 29.41081 57.38740000000001 C 31.637310000000003 57.328970000000005 33.86376 57.25305000000001 36.08849 57.147670000000005 C 37.53924 57.078950000000006 38.98711 56.94791000000001 40.43586 56.839240000000004 C 41.04246 56.79374000000001 41.18504 56.590540000000004 41.042069999999995 56.006870000000006 C 41.035849999999996 55.98145000000001 41.02647999999999 55.95680000000001 41.01906999999999 55.93164000000001 C 40.34179999999999 53.62694000000001 40.686879999999995 54.28164000000001 38.32760999999999 52.884910000000005 C 38.11371 52.75828 37.88568 52.65555 37.63865 52.52778 Z" stroke-linecap="round"/>
</g>
		<g transform="matrix(1 0 0 1 23.11 -23.01)">
<path style="stroke: none; stroke-width: 1; stroke-dasharray: none; stroke-linecap: butt; stroke-dashoffset: 0; stroke-linejoin: miter; stroke-miterlimit: 4; fill:#ffffff; fill-rule: nonzero; opacity: 1;" vector-effect="non-scaling-stroke" transform=" translate(-68.61, -42.04)" d="M 72.20257 38.93734 C 74.60271999999999 37.843109999999996 76.97174 36.75379 79.24919 35.4767 C 79.92452434035465 35.07440030790214 80.5780702947842 34.63660339564861 81.20708 34.165150000000004 C 81.2586 34.128620000000005 81.30069 34.06899000000001 81.39921000000001 34.097390000000004 C 81.46412000000001 34.27785 81.31245000000001 34.40439000000001 81.25721000000001 34.55180000000001 C 80.47482307996343 36.5871359317216 79.36047370707442 38.47870896751331 77.95947000000001 40.14961000000001 C 76.81454905486986 41.56976838014899 75.44826288841764 42.796154666096335 73.91315000000002 43.78161000000001 C 72.46239000000001 44.70091000000001 71.00849000000002 45.61627000000001 69.51360000000001 46.45908000000001 C 67.38134000000001 47.66124000000001 65.23318 48.837590000000006 63.011910000000015 49.872240000000005 C 62.577570000000016 50.07455 62.505910000000014 50.07077 62.297060000000016 49.609730000000006 C 61.97659944169307 48.859802017051514 61.49068146432929 48.19206178440193 60.875670000000014 47.65648000000001 C 59.64441198351347 46.498310761562166 58.06426444255932 45.7805039848517 56.38199999999999 45.61516 C 56.21575 45.60475 56.051539999999996 45.561930000000004 55.799319999999994 45.519510000000004 C 56.09102862030815 45.286256143533734 56.429507359287264 45.11849352166099 56.791779999999996 45.02761 C 58.809779999999996 44.288610000000006 60.842439999999996 43.58845 62.849349999999994 42.82079 C 65.99375 41.618 69.1152 40.35669 72.20257 38.93734 Z" stroke-linecap="round"/>
</g>
		<g transform="matrix(1 0 0 1 4.36 -15.06)">
<path style="stroke: none; stroke-width: 1; stroke-dasharray: none; stroke-linecap: butt; stroke-dashoffset: 0; stroke-linejoin: miter; stroke-miterlimit: 4; fill:#ffffff; fill-rule: nonzero; opacity: 1;" vector-effect="non-scaling-stroke" transform=" translate(-49.87, -50)" d="M 87.77758 34.04068 C 79.57814655057146 14.564263603113712 57.954089596319776 4.470186461527227 37.75877236225951 10.691976105365828 C 17.56345512819925 16.91376574920443 5.368839258691764 37.426726927351666 9.55129276287272 58.140697750008364 C 13.733746267053675 78.85466857266508 32.93221481286021 93.02890710588784 53.959449250968646 90.9272609793158 C 74.98668368907708 88.8256148527438 90.99999981638025 71.13200190603129 91 50.00000000000003 C 91.00730049061607 44.51792474367696 89.91140990865699 39.09042972984538 87.77758 34.04068 Z M 17.87132 37.1671 C 17.002666769524073 35.40340374519897 16.378416577590865 33.5295564118189 16.015800000000002 31.59728 C 15.983074513089258 31.364460513199948 15.970198163185323 31.129280622774722 15.977310000000003 30.894280000000002 C 16.141490000000005 30.83628 16.19731 30.957829999999998 16.274580000000004 31.03728 C 17.06983862674629 31.89391031892881 17.974646726575447 32.64186820304288 18.96558000000001 33.261790000000005 C 20.17939 33.982789999999994 19.975050000000003 33.84549 20.54173 32.88437 C 21.453590979721305 31.336749327704734 22.498060643578974 29.87119609693165 23.66338 28.50421 C 24.980848593640015 26.922419717675414 26.43569492765686 25.460305041621066 28.0109 24.134969999999992 C 30.44499081827061 22.115108824071193 33.147851132390755 20.443142473914993 36.042 19.166999999999998 C 38.13089398431319 18.254155242951434 40.300977708505634 17.53970542867246 42.52360999999996 17.033080000000005 C 49.86321748441689 15.41238966338206 57.533192347150035 16.274027935204273 64.33026 19.482819999999993 C 68.21664796705313 21.31984585327859 71.72520524566369 23.867488754516042 74.675 26.994369999999996 C 76.52997576308734 28.979272692005324 78.13516789307697 31.183645071085657 79.45481 33.55836999999999 C 79.59210999999999 33.80321 79.7256 33.83875 79.95215999999999 33.69524 C 81.0815941698308 33.02910324015163 82.1281024310035 32.231460546654 83.06979 31.319000000000003 C 83.23093130914177 31.134968142656057 83.42850146056992 30.98637000042854 83.65001 30.8826 C 83.76123 30.96324 83.72955999999999 31.0616 83.71200999999999 31.14524 C 83.33462328036232 33.249849050104544 82.6795177495483 35.29504671887283 81.76386 37.22724 C 81.65854789704095 37.442389409267506 81.65686605951448 37.69377075701335 81.75929 37.91031 C 84.84124633898526 45.69869971163332 84.82894670354106 54.37069398641955 81.72491 62.15030999999998 C 80.77064579595088 64.55086887187548 79.56531302346085 66.84383722854872 78.129 68.991 C 73.39102345237818 76.0591874037493 66.18506982311189 81.104051053113 57.922360000000005 83.13759999999999 C 50.562223978791025 84.91745098841781 42.82027977760396 84.21622460964996 35.89972 81.14289999999998 C 31.10703808344497 78.98075151679146 26.86877770486403 75.75705671900823 23.505500000000005 71.71564000000001 C 21.961963868347645 69.86241713743429 20.622310300426 67.84849287576516 19.509670000000003 65.70863999999999 C 17.29114711118677 61.514997005860515 15.979642143081087 56.901554467612044 15.660350000000005 52.168 C 15.533844244532652 50.46779158009856 15.546904633457519 48.76007465691388 15.699399999999999 47.062000000000005 C 15.931941517320546 44.50271468794815 16.47371948202554 41.9810323888962 17.312889999999996 39.552080000000004 C 17.51457 38.970209999999994 17.71024 38.38623 17.916809999999998 37.806079999999994 C 17.999627109613733 37.597254811375905 17.982885126397544 37.36208680883731 17.87132 37.1671 Z" stroke-linecap="round"/>
</g>
		<g transform="matrix(1 0 0 1 -26.1 48.38)" style="">
		<text xml:space="preserve" font-family="'Helvetica Neue', Helvetica, Arial-Unicode, Arial, Sans-serif" font-size="5" font-style="normal" font-weight="bold" style="stroke: none; stroke-width: 1; stroke-dasharray: none; stroke-linecap: butt; stroke-dashoffset: 0; stroke-linejoin: miter; stroke-miterlimit: 4; fill:#ffffff; fill-rule: nonzero; opacity: 1; white-space: pre;"><tspan x="-19.4" y="1.57" fill="#ffffff">Created by Dark</tspan></text>
</g>
		<g transform="matrix(1 0 0 1 -19.15 53.38)" style="">
		<text xml:space="preserve" font-family="'Helvetica Neue', Helvetica, Arial-Unicode, Arial, Sans-serif" font-size="5" font-style="normal" font-weight="bold" style="stroke: none; stroke-width: 1; stroke-dasharray: none; stroke-linecap: butt; stroke-dashoffset: 0; stroke-linejoin: miter; stroke-miterlimit: 4; fill:#ffffff; fill-rule: nonzero; opacity: 1; white-space: pre;"><tspan x="-26.35" y="1.57" fill="#ffffff">from the Noun Project</tspan></text>
</g>
</g>
</g>
</svg>